<svg xmlns="http://www.w3.org/2000/svg" viewBox="0 0 400 400" width="400" height="400">
  <defs>
    <linearGradient id="bgTheo" x1="0" y1="0" x2="1" y2="1">
      <stop offset="0%" stop-color="#fde7a8"/>
      <stop offset="100%" stop-color="#f6bf3f"/>
    </linearGradient>
    <radialGradient id="lightTheo" cx="0.3" cy="0.25" r="0.9">
      <stop offset="0%" stop-color="#ffffff" stop-opacity="0.55"/>
      <stop offset="60%" stop-color="#ffffff" stop-opacity="0"/>
    </radialGradient>
  </defs>
  <rect width="400" height="400" fill="url(#bgTheo)"/>
  <rect width="400" height="400" fill="url(#lightTheo)"/>
  <g transform="translate(200 230)">
    <ellipse cx="-95" cy="-30" rx="42" ry="60" fill="#6b3a17" transform="rotate(-22)"/>
    <ellipse cx="95" cy="-30" rx="42" ry="60" fill="#6b3a17" transform="rotate(22)"/>
    <ellipse cx="-95" cy="-30" rx="22" ry="36" fill="#9a5a2c" transform="rotate(-22)"/>
    <ellipse cx="95" cy="-30" rx="22" ry="36" fill="#9a5a2c" transform="rotate(22)"/>
    <ellipse cx="0" cy="0" rx="120" ry="115" fill="#f6d99a"/>
    <ellipse cx="0" cy="-10" rx="105" ry="95" fill="#fbe7b8"/>
    <ellipse cx="-44" cy="-18" rx="9" ry="6" fill="#2c1a08"/>
    <ellipse cx="44" cy="-18" rx="9" ry="6" fill="#2c1a08"/>
    <ellipse cx="-46" cy="-22" rx="3" ry="2" fill="#ffffff"/>
    <ellipse cx="42" cy="-22" rx="3" ry="2" fill="#ffffff"/>
    <ellipse cx="0" cy="20" rx="22" ry="18" fill="#fff3d4"/>
    <ellipse cx="0" cy="12" rx="14" ry="9" fill="#2c1a08"/>
    <path d="M-18 35 Q-9 50 0 45 Q9 50 18 35" stroke="#2c1a08" stroke-width="4" fill="none" stroke-linecap="round"/>
    <path d="M-5 45 Q0 65 5 45 Q12 60 5 70 Q0 75 -5 70 Q-12 60 -5 45 Z" fill="#f37b6e"/>
  </g>
</svg>
