<svg xmlns="http://www.w3.org/2000/svg" viewBox="0 0 400 400" width="400" height="400">
  <defs>
    <linearGradient id="bgLuna" x1="0" y1="0" x2="1" y2="1">
      <stop offset="0%" stop-color="#cfe7ff"/>
      <stop offset="100%" stop-color="#8ec5f3"/>
    </linearGradient>
    <radialGradient id="lightLuna" cx="0.25" cy="0.2" r="0.9">
      <stop offset="0%" stop-color="#ffffff" stop-opacity="0.6"/>
      <stop offset="60%" stop-color="#ffffff" stop-opacity="0"/>
    </radialGradient>
  </defs>
  <rect width="400" height="400" fill="url(#bgLuna)"/>
  <rect width="400" height="400" fill="url(#lightLuna)"/>
  <g transform="translate(200 230)">
    <path d="M-110 -70 Q-95 -135 -55 -85 Z" fill="#3a3a3a"/>
    <path d="M110 -70 Q95 -135 55 -85 Z" fill="#3a3a3a"/>
    <path d="M-100 -75 Q-88 -118 -62 -82 Z" fill="#f5b9a8"/>
    <path d="M100 -75 Q88 -118 62 -82 Z" fill="#f5b9a8"/>
    <ellipse cx="0" cy="0" rx="125" ry="112" fill="#3a3a3a"/>
    <ellipse cx="0" cy="6" rx="115" ry="102" fill="#5e5e5e"/>
    <ellipse cx="0" cy="40" rx="80" ry="58" fill="#f0e6d8"/>
    <ellipse cx="0" cy="32" rx="72" ry="48" fill="#f8f1e3"/>
    <ellipse cx="-40" cy="-8" rx="18" ry="22" fill="#1a1a1a"/>
    <ellipse cx="40" cy="-8" rx="18" ry="22" fill="#1a1a1a"/>
    <ellipse cx="-40" cy="-6" rx="10" ry="14" fill="#3d2410"/>
    <ellipse cx="40" cy="-6" rx="10" ry="14" fill="#3d2410"/>
    <ellipse cx="-42" cy="-12" rx="4" ry="6" fill="#ffffff"/>
    <ellipse cx="38" cy="-12" rx="4" ry="6" fill="#ffffff"/>
    <ellipse cx="0" cy="38" rx="22" ry="16" fill="#1a1a1a"/>
    <ellipse cx="0" cy="34" rx="14" ry="8" fill="#383838"/>
    <ellipse cx="-4" cy="32" rx="3" ry="2" fill="#ffffff"/>
    <path d="M-22 62 Q-10 78 0 70 Q10 78 22 62" stroke="#1a1a1a" stroke-width="4" fill="none" stroke-linecap="round"/>
    <path d="M-2 70 Q-2 86 2 86 Q2 70 -2 70 Z" fill="#f37b6e"/>
  </g>
</svg>
