<svg xmlns="http://www.w3.org/2000/svg" viewBox="0 0 400 400" width="400" height="400">
  <defs>
    <linearGradient id="bgMia" x1="0" y1="0" x2="1" y2="1">
      <stop offset="0%" stop-color="#ffd9c2"/>
      <stop offset="100%" stop-color="#f5a384"/>
    </linearGradient>
    <radialGradient id="lightMia" cx="0.7" cy="0.2" r="0.9">
      <stop offset="0%" stop-color="#ffffff" stop-opacity="0.55"/>
      <stop offset="60%" stop-color="#ffffff" stop-opacity="0"/>
    </radialGradient>
  </defs>
  <rect width="400" height="400" fill="url(#bgMia)"/>
  <rect width="400" height="400" fill="url(#lightMia)"/>
  <g transform="translate(200 230)">
    <path d="M-110 -40 L-78 -120 L-52 -50 Z" fill="#3b2418"/>
    <path d="M110 -40 L78 -120 L52 -50 Z" fill="#3b2418"/>
    <path d="M-100 -42 L-82 -100 L-62 -50 Z" fill="#f7b9b1"/>
    <path d="M100 -42 L82 -100 L62 -50 Z" fill="#f7b9b1"/>
    <ellipse cx="0" cy="0" rx="118" ry="105" fill="#4f2e1c"/>
    <ellipse cx="0" cy="6" rx="110" ry="98" fill="#7a4626"/>
    <path d="M-70 -10 Q-50 -30 -20 -22 L-20 30 Q-50 28 -70 8 Z" fill="#3b2418" opacity="0.6"/>
    <path d="M70 -10 Q50 -30 20 -22 L20 30 Q50 28 70 8 Z" fill="#3b2418" opacity="0.6"/>
    <ellipse cx="0" cy="40" rx="48" ry="40" fill="#f3dfc6"/>
    <ellipse cx="-38" cy="-15" rx="16" ry="20" fill="#fff8ed"/>
    <ellipse cx="38" cy="-15" rx="16" ry="20" fill="#fff8ed"/>
    <ellipse cx="-38" cy="-13" rx="10" ry="16" fill="#3aa37a"/>
    <ellipse cx="38" cy="-13" rx="10" ry="16" fill="#3aa37a"/>
    <ellipse cx="-38" cy="-10" rx="4" ry="9" fill="#0f1f1a"/>
    <ellipse cx="38" cy="-10" rx="4" ry="9" fill="#0f1f1a"/>
    <ellipse cx="-40" cy="-18" rx="2" ry="3" fill="#ffffff"/>
    <ellipse cx="36" cy="-18" rx="2" ry="3" fill="#ffffff"/>
    <path d="M-8 28 Q0 36 8 28 L0 22 Z" fill="#f37b6e"/>
    <path d="M-12 36 Q0 50 12 36" stroke="#1a0f08" stroke-width="3" fill="none" stroke-linecap="round"/>
    <line x1="-22" y1="32" x2="-58" y2="28" stroke="#1a0f08" stroke-width="1.5" stroke-linecap="round"/>
    <line x1="-22" y1="38" x2="-58" y2="40" stroke="#1a0f08" stroke-width="1.5" stroke-linecap="round"/>
    <line x1="22" y1="32" x2="58" y2="28" stroke="#1a0f08" stroke-width="1.5" stroke-linecap="round"/>
    <line x1="22" y1="38" x2="58" y2="40" stroke="#1a0f08" stroke-width="1.5" stroke-linecap="round"/>
  </g>
</svg>
