<svg xmlns="http://www.w3.org/2000/svg" width="220" height="220" viewBox="0 0 220 220" fill="none">
  <g fill="#0767c9" fill-opacity="0.06">
    <g transform="translate(40 50) rotate(-18)">
      <ellipse cx="0" cy="0" rx="11" ry="14"/>
      <ellipse cx="-16" cy="-14" rx="5" ry="7"/>
      <ellipse cx="-3" cy="-22" rx="5" ry="7"/>
      <ellipse cx="11" cy="-21" rx="5" ry="7"/>
      <ellipse cx="22" cy="-10" rx="5" ry="7"/>
    </g>
    <g transform="translate(150 110) rotate(14)">
      <ellipse cx="0" cy="0" rx="11" ry="14"/>
      <ellipse cx="-16" cy="-14" rx="5" ry="7"/>
      <ellipse cx="-3" cy="-22" rx="5" ry="7"/>
      <ellipse cx="11" cy="-21" rx="5" ry="7"/>
      <ellipse cx="22" cy="-10" rx="5" ry="7"/>
    </g>
    <g transform="translate(70 170) rotate(-6)">
      <ellipse cx="0" cy="0" rx="11" ry="14"/>
      <ellipse cx="-16" cy="-14" rx="5" ry="7"/>
      <ellipse cx="-3" cy="-22" rx="5" ry="7"/>
      <ellipse cx="11" cy="-21" rx="5" ry="7"/>
      <ellipse cx="22" cy="-10" rx="5" ry="7"/>
    </g>
  </g>
</svg>
