<svg xmlns="http://www.w3.org/2000/svg" viewBox="0 0 600 450" width="600" height="450">
  <defs>
    <linearGradient id="bgGroom" x1="0" y1="0" x2="0" y2="1">
      <stop offset="0%" stop-color="#eaf6ff"/>
      <stop offset="100%" stop-color="#bfdcf6"/>
    </linearGradient>
    <linearGradient id="tub" x1="0" y1="0" x2="0" y2="1">
      <stop offset="0%" stop-color="#ffffff"/>
      <stop offset="100%" stop-color="#dbe9f5"/>
    </linearGradient>
    <radialGradient id="waterBubble" cx="0.35" cy="0.35" r="0.6">
      <stop offset="0%" stop-color="#ffffff" stop-opacity="0.9"/>
      <stop offset="100%" stop-color="#ffffff" stop-opacity="0.2"/>
    </radialGradient>
  </defs>
  <rect width="600" height="450" fill="url(#bgGroom)"/>
  <rect x="0" y="340" width="600" height="110" fill="#9bbfe0"/>
  <rect x="0" y="338" width="600" height="6" fill="#7ea5cd"/>
  <ellipse cx="300" cy="365" rx="220" ry="20" fill="#7ea5cd" opacity="0.5"/>
  <path d="M120 280 Q120 230 170 230 L430 230 Q480 230 480 280 L480 360 Q480 380 460 380 L140 380 Q120 380 120 360 Z" fill="url(#tub)" stroke="#7ea5cd" stroke-width="2"/>
  <path d="M120 260 L480 260" stroke="#9bbfe0" stroke-width="3" opacity="0.6"/>
  <g transform="translate(300 240)">
    <ellipse cx="0" cy="80" rx="100" ry="50" fill="#f3e0c0"/>
    <ellipse cx="0" cy="0" rx="60" ry="58" fill="#fff3d4"/>
    <ellipse cx="-50" cy="-30" rx="22" ry="32" fill="#e0c590" transform="rotate(-15)"/>
    <ellipse cx="50" cy="-30" rx="22" ry="32" fill="#e0c590" transform="rotate(15)"/>
    <ellipse cx="-22" cy="0" rx="4.5" ry="3.5" fill="#1a1a1a"/>
    <ellipse cx="22" cy="0" rx="4.5" ry="3.5" fill="#1a1a1a"/>
    <ellipse cx="0" cy="14" rx="6" ry="4" fill="#1a1a1a"/>
    <path d="M-9 22 Q0 30 9 22" stroke="#1a1a1a" stroke-width="2" fill="none" stroke-linecap="round"/>
    <ellipse cx="-30" cy="-50" rx="14" ry="12" fill="url(#waterBubble)"/>
    <ellipse cx="30" cy="-45" rx="10" ry="9" fill="url(#waterBubble)"/>
    <ellipse cx="0" cy="-70" rx="12" ry="11" fill="url(#waterBubble)"/>
    <ellipse cx="-50" cy="40" rx="16" ry="12" fill="url(#waterBubble)"/>
    <ellipse cx="48" cy="55" rx="14" ry="11" fill="url(#waterBubble)"/>
  </g>
  <g transform="translate(180 200)">
    <rect x="-8" y="-50" width="16" height="60" rx="3" fill="#94a3b8"/>
    <path d="M-22 -85 Q-22 -110 0 -110 Q22 -110 22 -85 Z" fill="#94a3b8"/>
    <ellipse cx="0" cy="-78" rx="14" ry="6" fill="#dbe9f5"/>
    <g opacity="0.7">
      <circle cx="-2" cy="-70" r="3" fill="#ffffff"/>
      <circle cx="8" cy="-62" r="2.5" fill="#ffffff"/>
      <circle cx="-10" cy="-58" r="2" fill="#ffffff"/>
      <circle cx="2" cy="-54" r="2.5" fill="#ffffff"/>
    </g>
  </g>
  <g transform="translate(430 195)">
    <rect x="-30" y="-40" width="60" height="50" rx="6" fill="#0a1f3d"/>
    <rect x="-25" y="-35" width="50" height="35" rx="3" fill="#f6bf3f"/>
    <rect x="-22" y="-32" width="44" height="6" rx="1" fill="#fff7de" opacity="0.8"/>
    <path d="M30 -22 L60 -10 L60 -34 Z" fill="#0a1f3d"/>
    <g opacity="0.6">
      <path d="M65 -20 Q75 -20 80 -25 Q75 -30 65 -28 Z" fill="#ffffff"/>
      <path d="M65 -10 Q72 -10 76 -15 Q72 -20 65 -18 Z" fill="#ffffff"/>
    </g>
  </g>
  <g opacity="0.4" transform="translate(80 110)">
    <ellipse cx="0" cy="0" rx="9" ry="12" fill="#0767c9"/>
    <ellipse cx="-13" cy="-10" rx="4" ry="6" fill="#0767c9"/>
    <ellipse cx="-3" cy="-18" rx="4" ry="6" fill="#0767c9"/>
    <ellipse cx="9" cy="-17" rx="4" ry="6" fill="#0767c9"/>
    <ellipse cx="17" cy="-8" rx="4" ry="6" fill="#0767c9"/>
  </g>
  <g opacity="0.4" transform="translate(520 80) rotate(15)">
    <ellipse cx="0" cy="0" rx="9" ry="12" fill="#22b4df"/>
    <ellipse cx="-13" cy="-10" rx="4" ry="6" fill="#22b4df"/>
    <ellipse cx="-3" cy="-18" rx="4" ry="6" fill="#22b4df"/>
    <ellipse cx="9" cy="-17" rx="4" ry="6" fill="#22b4df"/>
    <ellipse cx="17" cy="-8" rx="4" ry="6" fill="#22b4df"/>
  </g>
</svg>
