<svg xmlns="http://www.w3.org/2000/svg" viewBox="0 0 600 450" width="600" height="450">
  <defs>
    <linearGradient id="bgHappy" x1="0" y1="0" x2="0" y2="1">
      <stop offset="0%" stop-color="#ffe6c2"/>
      <stop offset="100%" stop-color="#f5a384"/>
    </linearGradient>
    <radialGradient id="sunHappy" cx="0.5" cy="0.5" r="0.5">
      <stop offset="0%" stop-color="#fff7de"/>
      <stop offset="100%" stop-color="#f6bf3f"/>
    </radialGradient>
  </defs>
  <rect width="600" height="450" fill="url(#bgHappy)"/>
  <rect x="0" y="340" width="600" height="110" fill="#7bb289"/>
  <rect x="0" y="335" width="600" height="6" fill="#5e9970"/>
  <circle cx="500" cy="80" r="44" fill="url(#sunHappy)"/>
  <g stroke="#f6bf3f" stroke-width="3" stroke-linecap="round" opacity="0.55">
    <line x1="500" y1="14" x2="500" y2="26"/>
    <line x1="500" y1="134" x2="500" y2="146"/>
    <line x1="436" y1="80" x2="448" y2="80"/>
    <line x1="552" y1="80" x2="564" y2="80"/>
    <line x1="450" y1="32" x2="458" y2="40"/>
    <line x1="542" y1="120" x2="550" y2="128"/>
    <line x1="542" y1="40" x2="550" y2="32"/>
    <line x1="450" y1="128" x2="458" y2="120"/>
  </g>
  <g transform="translate(140 250)">
    <ellipse cx="0" cy="100" rx="80" ry="14" fill="#5e9970" opacity="0.5"/>
    <ellipse cx="0" cy="50" rx="55" ry="48" fill="#f6e0b8"/>
    <ellipse cx="0" cy="35" rx="48" ry="42" fill="#fff3d4"/>
    <ellipse cx="-40" cy="20" rx="20" ry="32" fill="#c89270" transform="rotate(-20)"/>
    <ellipse cx="40" cy="20" rx="20" ry="32" fill="#c89270" transform="rotate(20)"/>
    <path d="M-18 32 Q-14 28 -10 32" stroke="#1a1a1a" stroke-width="2.5" fill="none" stroke-linecap="round"/>
    <path d="M10 32 Q14 28 18 32" stroke="#1a1a1a" stroke-width="2.5" fill="none" stroke-linecap="round"/>
    <ellipse cx="0" cy="50" rx="10" ry="7" fill="#1a1a1a"/>
    <path d="M-14 60 Q0 78 14 60" stroke="#1a1a1a" stroke-width="3" fill="none" stroke-linecap="round"/>
    <path d="M-6 62 Q-6 80 6 84 Q12 78 6 62 Z" fill="#f37b6e"/>
    <path d="M50 -50 Q70 -55 80 -45 L80 -25 Z" fill="#f6bf3f"/>
    <rect x="-72" y="35" width="20" height="14" rx="7" fill="#f37b6e"/>
    <rect x="52" y="35" width="20" height="14" rx="7" fill="#f37b6e"/>
  </g>
  <g transform="translate(330 270)">
    <ellipse cx="0" cy="80" rx="70" ry="12" fill="#5e9970" opacity="0.5"/>
    <ellipse cx="0" cy="30" rx="48" ry="42" fill="#4a3520"/>
    <ellipse cx="0" cy="40" rx="42" ry="36" fill="#7a4626"/>
    <path d="M-44 -10 L-30 -55 L-15 -22 Z" fill="#3a2418"/>
    <path d="M44 -10 L30 -55 L15 -22 Z" fill="#3a2418"/>
    <path d="M-40 -8 L-30 -42 L-18 -22 Z" fill="#f5b9a8"/>
    <path d="M40 -8 L30 -42 L18 -22 Z" fill="#f5b9a8"/>
    <ellipse cx="-14" cy="28" rx="6" ry="9" fill="#fff8ed"/>
    <ellipse cx="14" cy="28" rx="6" ry="9" fill="#fff8ed"/>
    <ellipse cx="-14" cy="30" rx="4" ry="7" fill="#3aa37a"/>
    <ellipse cx="14" cy="30" rx="4" ry="7" fill="#3aa37a"/>
    <ellipse cx="-14" cy="32" rx="2" ry="4" fill="#0f1f1a"/>
    <ellipse cx="14" cy="32" rx="2" ry="4" fill="#0f1f1a"/>
    <ellipse cx="0" cy="48" rx="4" ry="3" fill="#f37b6e"/>
    <path d="M-7 56 Q0 64 7 56" stroke="#1a0f08" stroke-width="2.5" fill="none" stroke-linecap="round"/>
    <line x1="-9" y1="52" x2="-25" y2="48" stroke="#1a0f08" stroke-width="1.5" stroke-linecap="round"/>
    <line x1="-9" y1="56" x2="-25" y2="58" stroke="#1a0f08" stroke-width="1.5" stroke-linecap="round"/>
    <line x1="9" y1="52" x2="25" y2="48" stroke="#1a0f08" stroke-width="1.5" stroke-linecap="round"/>
    <line x1="9" y1="56" x2="25" y2="58" stroke="#1a0f08" stroke-width="1.5" stroke-linecap="round"/>
  </g>
  <g transform="translate(480 280)">
    <ellipse cx="0" cy="70" rx="60" ry="10" fill="#5e9970" opacity="0.5"/>
    <ellipse cx="0" cy="20" rx="42" ry="40" fill="#3a3a3a"/>
    <ellipse cx="0" cy="30" rx="36" ry="32" fill="#5e5e5e"/>
    <ellipse cx="0" cy="42" rx="22" ry="15" fill="#f0e6d8"/>
    <path d="M-38 -22 Q-30 -50 -16 -28 Z" fill="#3a3a3a"/>
    <path d="M38 -22 Q30 -50 16 -28 Z" fill="#3a3a3a"/>
    <ellipse cx="-13" cy="18" rx="5" ry="7" fill="#1a1a1a"/>
    <ellipse cx="13" cy="18" rx="5" ry="7" fill="#1a1a1a"/>
    <ellipse cx="-13" cy="20" rx="3" ry="4" fill="#3d2410"/>
    <ellipse cx="13" cy="20" rx="3" ry="4" fill="#3d2410"/>
    <ellipse cx="0" cy="40" rx="7" ry="5" fill="#1a1a1a"/>
    <path d="M-8 50 Q0 58 8 50" stroke="#1a1a1a" stroke-width="2.5" fill="none" stroke-linecap="round"/>
    <path d="M-2 52 Q-2 60 2 60 Q2 52 -2 52 Z" fill="#f37b6e"/>
  </g>
  <g transform="translate(120 60)" opacity="0.5">
    <path d="M0 8 Q-6 0 0 -6 Q6 0 0 8 Z" fill="#f37b6e"/>
    <path d="M-8 0 Q-12 -6 -6 -10 Q0 -6 -8 0 Z" fill="#f37b6e"/>
    <path d="M8 0 Q12 -6 6 -10 Q0 -6 8 0 Z" fill="#f37b6e"/>
  </g>
  <g transform="translate(260 90)" opacity="0.4">
    <path d="M0 8 Q-6 0 0 -6 Q6 0 0 8 Z" fill="#f37b6e"/>
    <path d="M-8 0 Q-12 -6 -6 -10 Q0 -6 -8 0 Z" fill="#f37b6e"/>
    <path d="M8 0 Q12 -6 6 -10 Q0 -6 8 0 Z" fill="#f37b6e"/>
  </g>
</svg>
