<svg xmlns="http://www.w3.org/2000/svg" viewBox="0 0 600 450" width="600" height="450">
  <defs>
    <linearGradient id="skyStore" x1="0" y1="0" x2="0" y2="1">
      <stop offset="0%" stop-color="#e6f3ff"/>
      <stop offset="100%" stop-color="#cfe7ff"/>
    </linearGradient>
    <linearGradient id="facade" x1="0" y1="0" x2="0" y2="1">
      <stop offset="0%" stop-color="#0a3a72"/>
      <stop offset="100%" stop-color="#062648"/>
    </linearGradient>
    <linearGradient id="awning" x1="0" y1="0" x2="0" y2="1">
      <stop offset="0%" stop-color="#0767c9"/>
      <stop offset="100%" stop-color="#004f9f"/>
    </linearGradient>
    <linearGradient id="windowGlow" x1="0" y1="0" x2="0" y2="1">
      <stop offset="0%" stop-color="#fff7de"/>
      <stop offset="100%" stop-color="#f6bf3f"/>
    </linearGradient>
  </defs>
  <rect width="600" height="450" fill="url(#skyStore)"/>
  <rect x="0" y="340" width="600" height="110" fill="#d4dce4"/>
  <rect x="0" y="345" width="600" height="6" fill="#bcc6d0"/>
  <rect x="80" y="120" width="440" height="240" fill="url(#facade)" rx="3"/>
  <rect x="100" y="200" width="160" height="140" fill="#0a4a8c" rx="2"/>
  <rect x="100" y="200" width="160" height="140" fill="url(#windowGlow)" opacity="0.35" rx="2"/>
  <rect x="100" y="200" width="160" height="6" fill="#062648"/>
  <line x1="180" y1="200" x2="180" y2="340" stroke="#062648" stroke-width="2"/>
  <line x1="100" y1="270" x2="260" y2="270" stroke="#062648" stroke-width="2"/>
  <rect x="290" y="200" width="160" height="140" fill="#0a4a8c" rx="2"/>
  <rect x="290" y="200" width="160" height="140" fill="url(#windowGlow)" opacity="0.35" rx="2"/>
  <rect x="290" y="200" width="160" height="6" fill="#062648"/>
  <line x1="370" y1="200" x2="370" y2="340" stroke="#062648" stroke-width="2"/>
  <line x1="290" y1="270" x2="450" y2="270" stroke="#062648" stroke-width="2"/>
  <path d="M70 120 L530 120 L520 95 L80 95 Z" fill="url(#awning)"/>
  <g transform="translate(80 100)">
    <path d="M0 0 L20 25 L40 0 L60 25 L80 0 L100 25 L120 0 L140 25 L160 0 L180 25 L200 0 L220 25 L240 0 L260 25 L280 0 L300 25 L320 0 L340 25 L360 0 L380 25 L400 0 L420 25 L440 0 Z" fill="url(#awning)"/>
  </g>
  <rect x="240" y="50" width="120" height="32" rx="4" fill="#ffffff"/>
  <text x="300" y="71" font-family="Inter, sans-serif" font-size="18" font-weight="700" text-anchor="middle" fill="#0a1f3d">Petgres</text>
  <g transform="translate(245 60) scale(0.5)">
    <ellipse cx="0" cy="0" rx="6" ry="8" fill="#0767c9"/>
    <ellipse cx="-9" cy="-8" rx="3" ry="4" fill="#0767c9"/>
    <ellipse cx="-2" cy="-13" rx="3" ry="4" fill="#0767c9"/>
    <ellipse cx="6" cy="-12" rx="3" ry="4" fill="#0767c9"/>
    <ellipse cx="12" cy="-6" rx="3" ry="4" fill="#0767c9"/>
  </g>
  <g transform="translate(345 60) scale(0.5)">
    <ellipse cx="0" cy="0" rx="6" ry="8" fill="#0767c9"/>
    <ellipse cx="-9" cy="-8" rx="3" ry="4" fill="#0767c9"/>
    <ellipse cx="-2" cy="-13" rx="3" ry="4" fill="#0767c9"/>
    <ellipse cx="6" cy="-12" rx="3" ry="4" fill="#0767c9"/>
    <ellipse cx="12" cy="-6" rx="3" ry="4" fill="#0767c9"/>
  </g>
  <ellipse cx="500" cy="350" rx="50" ry="6" fill="#94a3b8" opacity="0.4"/>
  <g transform="translate(490 320)">
    <ellipse cx="0" cy="20" rx="22" ry="8" fill="#5e2f12"/>
    <ellipse cx="0" cy="5" rx="20" ry="22" fill="#7a4626"/>
    <ellipse cx="-12" cy="-12" rx="6" ry="10" fill="#5e2f12"/>
    <ellipse cx="12" cy="-12" rx="6" ry="10" fill="#5e2f12"/>
    <circle cx="-8" cy="2" r="2" fill="#1a1a1a"/>
    <circle cx="8" cy="2" r="2" fill="#1a1a1a"/>
    <ellipse cx="0" cy="10" rx="3" ry="2" fill="#1a1a1a"/>
  </g>
  <g opacity="0.5">
    <ellipse cx="100" cy="50" rx="30" ry="8" fill="#ffffff"/>
    <ellipse cx="120" cy="40" rx="36" ry="10" fill="#ffffff"/>
    <ellipse cx="480" cy="60" rx="42" ry="11" fill="#ffffff"/>
  </g>
</svg>
